<mxfile host="app.diagrams.net" modified="2024-01-17T18:24:07.336Z" agent="Mozilla/5.0 (X11; Linux x86_64) AppleWebKit/537.36 (KHTML, like Gecko) Chrome/120.0.0.0 Safari/537.36" etag="YsNq2ebJq3L2VQMIILhJ" version="22.1.19" type="google">
  <diagram name="Página-1" id="LVSQt6ujR3S2-m6vpGDA">
    <mxGraphModel grid="1" page="1" gridSize="10" guides="1" tooltips="1" connect="1" arrows="1" fold="1" pageScale="1" pageWidth="827" pageHeight="1169" math="0" shadow="0">
      <root>
        <mxCell id="0" />
        <mxCell id="1" parent="0" />
        <mxCell id="5eVwMM55AhsTZu3MU9i9-1" value="" style="html=1;whiteSpace=wrap;" vertex="1" parent="1">
          <mxGeometry x="2670" y="110" width="1010" height="985" as="geometry" />
        </mxCell>
        <mxCell id="5eVwMM55AhsTZu3MU9i9-2" value="" style="html=1;whiteSpace=wrap;" vertex="1" parent="1">
          <mxGeometry x="280" y="189" width="280" height="511" as="geometry" />
        </mxCell>
        <mxCell id="u_QHIvNHBWL9RGwi2mKn-13" style="rounded=0;orthogonalLoop=1;jettySize=auto;html=1;exitX=0;exitY=0.3333333333333333;exitDx=0;exitDy=0;exitPerimeter=0;entryX=1;entryY=0.5;entryDx=0;entryDy=0;endArrow=none;endFill=0;" edge="1" parent="1" source="5eVwMM55AhsTZu3MU9i9-3" target="5eVwMM55AhsTZu3MU9i9-6">
          <mxGeometry relative="1" as="geometry" />
        </mxCell>
        <mxCell id="DiivEsyJtq7pHUNZ7dKd-4" style="rounded=0;orthogonalLoop=1;jettySize=auto;html=1;exitX=0;exitY=1;exitDx=0;exitDy=0;exitPerimeter=0;entryX=1;entryY=0.5;entryDx=0;entryDy=0;endArrow=none;endFill=0;" edge="1" parent="1" source="5eVwMM55AhsTZu3MU9i9-3" target="DiivEsyJtq7pHUNZ7dKd-2">
          <mxGeometry relative="1" as="geometry" />
        </mxCell>
        <mxCell id="lPMzp1araiUFEV0C0I6o-3" style="rounded=0;orthogonalLoop=1;jettySize=auto;html=1;exitX=0;exitY=0.3333333333333333;exitDx=0;exitDy=0;exitPerimeter=0;entryX=1;entryY=0.5;entryDx=0;entryDy=0;endArrow=none;endFill=0;" edge="1" parent="1" source="5eVwMM55AhsTZu3MU9i9-3" target="lPMzp1araiUFEV0C0I6o-1">
          <mxGeometry relative="1" as="geometry" />
        </mxCell>
        <mxCell id="wugK7WXSN-6xL4nprbzl-3" style="rounded=0;orthogonalLoop=1;jettySize=auto;html=1;exitX=0;exitY=0.3333333333333333;exitDx=0;exitDy=0;exitPerimeter=0;entryX=1;entryY=0.5;entryDx=0;entryDy=0;endArrow=none;endFill=0;" edge="1" parent="1" source="5eVwMM55AhsTZu3MU9i9-3" target="5eVwMM55AhsTZu3MU9i9-4">
          <mxGeometry relative="1" as="geometry" />
        </mxCell>
        <mxCell id="wugK7WXSN-6xL4nprbzl-7" style="rounded=0;orthogonalLoop=1;jettySize=auto;html=1;exitX=0;exitY=1;exitDx=0;exitDy=0;exitPerimeter=0;entryX=1;entryY=0.5;entryDx=0;entryDy=0;endArrow=none;endFill=0;" edge="1" parent="1" source="5eVwMM55AhsTZu3MU9i9-3" target="wugK7WXSN-6xL4nprbzl-4">
          <mxGeometry relative="1" as="geometry" />
        </mxCell>
        <mxCell id="5eVwMM55AhsTZu3MU9i9-3" value="Administrador" style="shape=umlActor;verticalLabelPosition=bottom;verticalAlign=top;html=1;" vertex="1" parent="1">
          <mxGeometry x="650" y="343.5" width="30" height="60" as="geometry" />
        </mxCell>
        <mxCell id="5eVwMM55AhsTZu3MU9i9-4" value="Crear Usuario" style="ellipse;whiteSpace=wrap;html=1;" vertex="1" parent="1">
          <mxGeometry x="344" y="203.5" width="140" height="66.5" as="geometry" />
        </mxCell>
        <mxCell id="5eVwMM55AhsTZu3MU9i9-5" value="" style="endArrow=none;html=1;rounded=0;entryX=0;entryY=0.5;entryDx=0;entryDy=0;exitX=1;exitY=0.3333333333333333;exitDx=0;exitDy=0;exitPerimeter=0;" edge="1" parent="1" source="u_QHIvNHBWL9RGwi2mKn-1" target="5eVwMM55AhsTZu3MU9i9-4">
          <mxGeometry relative="1" as="geometry">
            <mxPoint x="220" y="299.5" as="sourcePoint" />
            <mxPoint x="350" y="259.5" as="targetPoint" />
          </mxGeometry>
        </mxCell>
        <mxCell id="5eVwMM55AhsTZu3MU9i9-6" value="Inicio de Sesión" style="ellipse;whiteSpace=wrap;html=1;" vertex="1" parent="1">
          <mxGeometry x="349" y="289" width="140" height="70" as="geometry" />
        </mxCell>
        <mxCell id="5eVwMM55AhsTZu3MU9i9-7" value="Solicitante" style="shape=umlActor;verticalLabelPosition=bottom;verticalAlign=top;html=1;" vertex="1" parent="1">
          <mxGeometry x="70" y="419.5" width="30" height="60" as="geometry" />
        </mxCell>
        <mxCell id="5eVwMM55AhsTZu3MU9i9-8" value="Empleador" style="shape=umlActor;verticalLabelPosition=bottom;verticalAlign=top;html=1;fontStyle=1" vertex="1" parent="1">
          <mxGeometry x="170" y="419.5" width="30" height="60" as="geometry" />
        </mxCell>
        <mxCell id="5eVwMM55AhsTZu3MU9i9-13" value="" style="endArrow=none;html=1;rounded=0;exitX=1;exitY=1;exitDx=0;exitDy=0;exitPerimeter=0;entryX=0;entryY=0.5;entryDx=0;entryDy=0;" edge="1" parent="1" source="u_QHIvNHBWL9RGwi2mKn-1" target="5eVwMM55AhsTZu3MU9i9-6">
          <mxGeometry relative="1" as="geometry">
            <mxPoint x="230" y="429.5" as="sourcePoint" />
            <mxPoint x="360" y="314.5" as="targetPoint" />
          </mxGeometry>
        </mxCell>
        <mxCell id="5eVwMM55AhsTZu3MU9i9-17" value="Administrador" style="shape=umlActor;verticalLabelPosition=bottom;verticalAlign=top;html=1;" vertex="1" parent="1">
          <mxGeometry x="120" y="895" width="30" height="60" as="geometry" />
        </mxCell>
        <mxCell id="5eVwMM55AhsTZu3MU9i9-18" value="" style="html=1;whiteSpace=wrap;" vertex="1" parent="1">
          <mxGeometry x="270" y="790" width="280" height="360" as="geometry" />
        </mxCell>
        <mxCell id="5eVwMM55AhsTZu3MU9i9-19" value="Dashboard" style="ellipse;whiteSpace=wrap;html=1;" vertex="1" parent="1">
          <mxGeometry x="340" y="810" width="140" height="70" as="geometry" />
        </mxCell>
        <mxCell id="5eVwMM55AhsTZu3MU9i9-20" value="Gestion de Categorias" style="ellipse;whiteSpace=wrap;html=1;" vertex="1" parent="1">
          <mxGeometry x="340" y="890" width="140" height="70" as="geometry" />
        </mxCell>
        <mxCell id="5eVwMM55AhsTZu3MU9i9-21" value="Comision" style="ellipse;whiteSpace=wrap;html=1;" vertex="1" parent="1">
          <mxGeometry x="340" y="970" width="140" height="70" as="geometry" />
        </mxCell>
        <mxCell id="5eVwMM55AhsTZu3MU9i9-22" value="" style="endArrow=none;html=1;rounded=0;exitX=1;exitY=0.3333333333333333;exitDx=0;exitDy=0;exitPerimeter=0;entryX=0;entryY=0.5;entryDx=0;entryDy=0;" edge="1" parent="1" source="5eVwMM55AhsTZu3MU9i9-17" target="5eVwMM55AhsTZu3MU9i9-19">
          <mxGeometry relative="1" as="geometry">
            <mxPoint x="115" y="690" as="sourcePoint" />
            <mxPoint x="350" y="635" as="targetPoint" />
          </mxGeometry>
        </mxCell>
        <mxCell id="5eVwMM55AhsTZu3MU9i9-23" value="" style="endArrow=none;html=1;rounded=0;exitX=0.5;exitY=0.5;exitDx=0;exitDy=0;exitPerimeter=0;entryX=0;entryY=0.5;entryDx=0;entryDy=0;" edge="1" parent="1" source="5eVwMM55AhsTZu3MU9i9-17" target="5eVwMM55AhsTZu3MU9i9-20">
          <mxGeometry relative="1" as="geometry">
            <mxPoint x="125" y="700" as="sourcePoint" />
            <mxPoint x="360" y="645" as="targetPoint" />
          </mxGeometry>
        </mxCell>
        <mxCell id="5eVwMM55AhsTZu3MU9i9-24" value="" style="endArrow=none;html=1;rounded=0;exitX=1;exitY=1;exitDx=0;exitDy=0;exitPerimeter=0;entryX=0;entryY=0.5;entryDx=0;entryDy=0;" edge="1" parent="1" source="5eVwMM55AhsTZu3MU9i9-17" target="5eVwMM55AhsTZu3MU9i9-21">
          <mxGeometry relative="1" as="geometry">
            <mxPoint x="135" y="710" as="sourcePoint" />
            <mxPoint x="370" y="655" as="targetPoint" />
          </mxGeometry>
        </mxCell>
        <mxCell id="5eVwMM55AhsTZu3MU9i9-25" value="Reportes" style="ellipse;whiteSpace=wrap;html=1;" vertex="1" parent="1">
          <mxGeometry x="340" y="1060" width="140" height="70" as="geometry" />
        </mxCell>
        <mxCell id="5eVwMM55AhsTZu3MU9i9-26" value="Solicitante" style="shape=umlActor;verticalLabelPosition=bottom;verticalAlign=top;html=1;" vertex="1" parent="1">
          <mxGeometry x="934.5" y="315.75" width="30" height="60" as="geometry" />
        </mxCell>
        <mxCell id="5eVwMM55AhsTZu3MU9i9-27" value="" style="html=1;whiteSpace=wrap;" vertex="1" parent="1">
          <mxGeometry x="1130" y="61.5" width="280" height="560" as="geometry" />
        </mxCell>
        <mxCell id="5eVwMM55AhsTZu3MU9i9-28" value="Completar Información" style="ellipse;whiteSpace=wrap;html=1;" vertex="1" parent="1">
          <mxGeometry x="1200" y="80" width="140" height="70" as="geometry" />
        </mxCell>
        <mxCell id="5eVwMM55AhsTZu3MU9i9-29" value="Oferta de empleo" style="ellipse;whiteSpace=wrap;html=1;" vertex="1" parent="1">
          <mxGeometry x="1200" y="160" width="140" height="70" as="geometry" />
        </mxCell>
        <mxCell id="5eVwMM55AhsTZu3MU9i9-30" value="Postulaciones" style="ellipse;whiteSpace=wrap;html=1;" vertex="1" parent="1">
          <mxGeometry x="1200" y="320" width="140" height="70" as="geometry" />
        </mxCell>
        <mxCell id="5eVwMM55AhsTZu3MU9i9-31" value="" style="endArrow=none;html=1;rounded=0;exitX=1;exitY=0.3333333333333333;exitDx=0;exitDy=0;exitPerimeter=0;entryX=0;entryY=0.5;entryDx=0;entryDy=0;" edge="1" parent="1" source="5eVwMM55AhsTZu3MU9i9-26" target="5eVwMM55AhsTZu3MU9i9-28">
          <mxGeometry relative="1" as="geometry">
            <mxPoint x="975" y="9" as="sourcePoint" />
            <mxPoint x="1210" y="-46" as="targetPoint" />
          </mxGeometry>
        </mxCell>
        <mxCell id="5eVwMM55AhsTZu3MU9i9-32" value="" style="endArrow=none;html=1;rounded=0;exitX=0.5;exitY=0.5;exitDx=0;exitDy=0;exitPerimeter=0;entryX=0;entryY=0.5;entryDx=0;entryDy=0;" edge="1" parent="1" source="5eVwMM55AhsTZu3MU9i9-26" target="5eVwMM55AhsTZu3MU9i9-29">
          <mxGeometry relative="1" as="geometry">
            <mxPoint x="985" y="19" as="sourcePoint" />
            <mxPoint x="1220" y="-36" as="targetPoint" />
          </mxGeometry>
        </mxCell>
        <mxCell id="5eVwMM55AhsTZu3MU9i9-33" value="" style="endArrow=none;html=1;rounded=0;exitX=1;exitY=1;exitDx=0;exitDy=0;exitPerimeter=0;entryX=0;entryY=0.5;entryDx=0;entryDy=0;" edge="1" parent="1" source="5eVwMM55AhsTZu3MU9i9-26" target="5eVwMM55AhsTZu3MU9i9-30">
          <mxGeometry relative="1" as="geometry">
            <mxPoint x="995" y="29" as="sourcePoint" />
            <mxPoint x="1230" y="-26" as="targetPoint" />
          </mxGeometry>
        </mxCell>
        <mxCell id="5eVwMM55AhsTZu3MU9i9-34" value="Entrevistas" style="ellipse;whiteSpace=wrap;html=1;" vertex="1" parent="1">
          <mxGeometry x="1200" y="419.5" width="140" height="70" as="geometry" />
        </mxCell>
        <mxCell id="wugK7WXSN-6xL4nprbzl-9" style="rounded=0;orthogonalLoop=1;jettySize=auto;html=1;exitX=0.5;exitY=0.5;exitDx=0;exitDy=0;exitPerimeter=0;entryX=0;entryY=0.5;entryDx=0;entryDy=0;endArrow=none;endFill=0;" edge="1" parent="1" source="5eVwMM55AhsTZu3MU9i9-35" target="wugK7WXSN-6xL4nprbzl-8">
          <mxGeometry relative="1" as="geometry" />
        </mxCell>
        <mxCell id="5eVwMM55AhsTZu3MU9i9-35" value="Empleador" style="shape=umlActor;verticalLabelPosition=bottom;verticalAlign=top;html=1;" vertex="1" parent="1">
          <mxGeometry x="934.5" y="899" width="30" height="60" as="geometry" />
        </mxCell>
        <mxCell id="5eVwMM55AhsTZu3MU9i9-36" value="" style="html=1;whiteSpace=wrap;" vertex="1" parent="1">
          <mxGeometry x="1130" y="682" width="280" height="468" as="geometry" />
        </mxCell>
        <mxCell id="5eVwMM55AhsTZu3MU9i9-37" value="Completar información" style="ellipse;whiteSpace=wrap;html=1;" vertex="1" parent="1">
          <mxGeometry x="1200" y="691" width="140" height="70" as="geometry" />
        </mxCell>
        <mxCell id="5eVwMM55AhsTZu3MU9i9-38" value="Gestion de ofertas" style="ellipse;whiteSpace=wrap;html=1;" vertex="1" parent="1">
          <mxGeometry x="1200" y="771" width="140" height="70" as="geometry" />
        </mxCell>
        <mxCell id="5eVwMM55AhsTZu3MU9i9-39" value="Revision de postulaciones" style="ellipse;whiteSpace=wrap;html=1;" vertex="1" parent="1">
          <mxGeometry x="1200" y="851" width="140" height="70" as="geometry" />
        </mxCell>
        <mxCell id="5eVwMM55AhsTZu3MU9i9-40" value="" style="endArrow=none;html=1;rounded=0;exitX=0.5;exitY=0;exitDx=0;exitDy=0;exitPerimeter=0;entryX=0;entryY=0.5;entryDx=0;entryDy=0;" edge="1" parent="1" source="5eVwMM55AhsTZu3MU9i9-35" target="5eVwMM55AhsTZu3MU9i9-37">
          <mxGeometry relative="1" as="geometry">
            <mxPoint x="975" y="600" as="sourcePoint" />
            <mxPoint x="1210" y="545" as="targetPoint" />
          </mxGeometry>
        </mxCell>
        <mxCell id="5eVwMM55AhsTZu3MU9i9-41" value="" style="endArrow=none;html=1;rounded=0;exitX=0.5;exitY=0.5;exitDx=0;exitDy=0;exitPerimeter=0;entryX=0;entryY=0.5;entryDx=0;entryDy=0;" edge="1" parent="1" source="5eVwMM55AhsTZu3MU9i9-35" target="5eVwMM55AhsTZu3MU9i9-38">
          <mxGeometry relative="1" as="geometry">
            <mxPoint x="985" y="610" as="sourcePoint" />
            <mxPoint x="1220" y="555" as="targetPoint" />
          </mxGeometry>
        </mxCell>
        <mxCell id="5eVwMM55AhsTZu3MU9i9-43" value="Revision de Entrevistas" style="ellipse;whiteSpace=wrap;html=1;" vertex="1" parent="1">
          <mxGeometry x="1200" y="941" width="140" height="70" as="geometry" />
        </mxCell>
        <mxCell id="5eVwMM55AhsTZu3MU9i9-44" value="" style="endArrow=none;html=1;rounded=0;exitX=0.5;exitY=0.5;exitDx=0;exitDy=0;exitPerimeter=0;entryX=0;entryY=0.5;entryDx=0;entryDy=0;" edge="1" parent="1" source="5eVwMM55AhsTZu3MU9i9-35" target="5eVwMM55AhsTZu3MU9i9-39">
          <mxGeometry relative="1" as="geometry">
            <mxPoint x="1020" y="875" as="sourcePoint" />
            <mxPoint x="1210" y="925" as="targetPoint" />
          </mxGeometry>
        </mxCell>
        <mxCell id="5eVwMM55AhsTZu3MU9i9-45" value="Reportes" style="ellipse;whiteSpace=wrap;html=1;" vertex="1" parent="1">
          <mxGeometry x="1200" y="1021" width="140" height="49" as="geometry" />
        </mxCell>
        <mxCell id="5eVwMM55AhsTZu3MU9i9-48" value="" style="endArrow=none;html=1;rounded=0;entryX=0;entryY=0.5;entryDx=0;entryDy=0;exitX=0.5;exitY=0.5;exitDx=0;exitDy=0;exitPerimeter=0;" edge="1" parent="1" source="5eVwMM55AhsTZu3MU9i9-35" target="5eVwMM55AhsTZu3MU9i9-43">
          <mxGeometry relative="1" as="geometry">
            <mxPoint x="960" y="1070" as="sourcePoint" />
            <mxPoint x="1210" y="1015" as="targetPoint" />
          </mxGeometry>
        </mxCell>
        <mxCell id="5eVwMM55AhsTZu3MU9i9-50" value="" style="endArrow=none;html=1;rounded=0;entryX=0;entryY=0.5;entryDx=0;entryDy=0;exitX=0.5;exitY=0.5;exitDx=0;exitDy=0;exitPerimeter=0;" edge="1" parent="1" source="5eVwMM55AhsTZu3MU9i9-35" target="5eVwMM55AhsTZu3MU9i9-45">
          <mxGeometry relative="1" as="geometry">
            <mxPoint x="980" y="1000" as="sourcePoint" />
            <mxPoint x="1220" y="1105" as="targetPoint" />
          </mxGeometry>
        </mxCell>
        <mxCell id="5eVwMM55AhsTZu3MU9i9-71" value="" style="endArrow=none;html=1;rounded=0;exitX=0;exitY=1;exitDx=0;exitDy=0;exitPerimeter=0;entryX=0;entryY=0.5;entryDx=0;entryDy=0;" edge="1" parent="1" source="5eVwMM55AhsTZu3MU9i9-17" target="5eVwMM55AhsTZu3MU9i9-25">
          <mxGeometry relative="1" as="geometry">
            <mxPoint x="160" y="965" as="sourcePoint" />
            <mxPoint x="350" y="1015" as="targetPoint" />
          </mxGeometry>
        </mxCell>
        <mxCell id="5eVwMM55AhsTZu3MU9i9-72" value="" style="endArrow=none;html=1;rounded=0;exitX=0;exitY=1;exitDx=0;exitDy=0;exitPerimeter=0;entryX=0;entryY=0.5;entryDx=0;entryDy=0;" edge="1" parent="1" source="5eVwMM55AhsTZu3MU9i9-26" target="5eVwMM55AhsTZu3MU9i9-34">
          <mxGeometry relative="1" as="geometry">
            <mxPoint x="1020" y="284" as="sourcePoint" />
            <mxPoint x="1210" y="334" as="targetPoint" />
          </mxGeometry>
        </mxCell>
        <mxCell id="5eVwMM55AhsTZu3MU9i9-83" value="" style="html=1;whiteSpace=wrap;" vertex="1" parent="1">
          <mxGeometry x="1933" y="416" width="280" height="616" as="geometry" />
        </mxCell>
        <mxCell id="DiivEsyJtq7pHUNZ7dKd-37" style="rounded=0;orthogonalLoop=1;jettySize=auto;html=1;exitX=1;exitY=1;exitDx=0;exitDy=0;exitPerimeter=0;entryX=0;entryY=0.5;entryDx=0;entryDy=0;endArrow=none;endFill=0;" edge="1" parent="1" source="5eVwMM55AhsTZu3MU9i9-84" target="5eVwMM55AhsTZu3MU9i9-100">
          <mxGeometry relative="1" as="geometry" />
        </mxCell>
        <mxCell id="5eVwMM55AhsTZu3MU9i9-84" value="Administrador" style="shape=umlActor;verticalLabelPosition=bottom;verticalAlign=top;html=1;" vertex="1" parent="1">
          <mxGeometry x="1763" y="500" width="30" height="60" as="geometry" />
        </mxCell>
        <mxCell id="5eVwMM55AhsTZu3MU9i9-85" value="Crear Usuario" style="ellipse;whiteSpace=wrap;html=1;" vertex="1" parent="1">
          <mxGeometry x="2003" y="431" width="140" height="70" as="geometry" />
        </mxCell>
        <mxCell id="5eVwMM55AhsTZu3MU9i9-87" value="Inicio de Sesión" style="ellipse;whiteSpace=wrap;html=1;" vertex="1" parent="1">
          <mxGeometry x="2003" y="511" width="140" height="70" as="geometry" />
        </mxCell>
        <mxCell id="DiivEsyJtq7pHUNZ7dKd-38" style="rounded=0;orthogonalLoop=1;jettySize=auto;html=1;exitX=1;exitY=0.3333333333333333;exitDx=0;exitDy=0;exitPerimeter=0;entryX=0;entryY=0.5;entryDx=0;entryDy=0;endArrow=none;endFill=0;" edge="1" parent="1" source="5eVwMM55AhsTZu3MU9i9-88" target="5eVwMM55AhsTZu3MU9i9-98">
          <mxGeometry relative="1" as="geometry" />
        </mxCell>
        <mxCell id="5eVwMM55AhsTZu3MU9i9-88" value="Solicitante" style="shape=umlActor;verticalLabelPosition=bottom;verticalAlign=top;html=1;" vertex="1" parent="1">
          <mxGeometry x="1763" y="756" width="30" height="60" as="geometry" />
        </mxCell>
        <mxCell id="DiivEsyJtq7pHUNZ7dKd-36" style="rounded=0;orthogonalLoop=1;jettySize=auto;html=1;exitX=0;exitY=1;exitDx=0;exitDy=0;exitPerimeter=0;entryX=1;entryY=0.5;entryDx=0;entryDy=0;endArrow=none;endFill=0;" edge="1" parent="1" source="5eVwMM55AhsTZu3MU9i9-89" target="5eVwMM55AhsTZu3MU9i9-100">
          <mxGeometry relative="1" as="geometry" />
        </mxCell>
        <mxCell id="5eVwMM55AhsTZu3MU9i9-89" value="Empleador" style="shape=umlActor;verticalLabelPosition=bottom;verticalAlign=top;html=1;" vertex="1" parent="1">
          <mxGeometry x="2343" y="756" width="30" height="60" as="geometry" />
        </mxCell>
        <mxCell id="5eVwMM55AhsTZu3MU9i9-90" value="" style="endArrow=none;html=1;rounded=0;exitX=1;exitY=0.3333333333333333;exitDx=0;exitDy=0;exitPerimeter=0;entryX=0;entryY=0.5;entryDx=0;entryDy=0;" edge="1" parent="1" source="5eVwMM55AhsTZu3MU9i9-88" target="5eVwMM55AhsTZu3MU9i9-85">
          <mxGeometry relative="1" as="geometry">
            <mxPoint x="1883" y="461" as="sourcePoint" />
            <mxPoint x="2013" y="466" as="targetPoint" />
          </mxGeometry>
        </mxCell>
        <mxCell id="5eVwMM55AhsTZu3MU9i9-91" value="" style="endArrow=none;html=1;rounded=0;exitX=1;exitY=0.5;exitDx=0;exitDy=0;entryX=0;entryY=0.3333333333333333;entryDx=0;entryDy=0;entryPerimeter=0;" edge="1" parent="1" source="5eVwMM55AhsTZu3MU9i9-85" target="5eVwMM55AhsTZu3MU9i9-89">
          <mxGeometry relative="1" as="geometry">
            <mxPoint x="1883" y="581" as="sourcePoint" />
            <mxPoint x="2013" y="466" as="targetPoint" />
          </mxGeometry>
        </mxCell>
        <mxCell id="5eVwMM55AhsTZu3MU9i9-94" value="" style="endArrow=none;html=1;rounded=0;exitX=1;exitY=0.3333333333333333;exitDx=0;exitDy=0;exitPerimeter=0;entryX=0;entryY=0.5;entryDx=0;entryDy=0;" edge="1" parent="1" source="5eVwMM55AhsTZu3MU9i9-84" target="5eVwMM55AhsTZu3MU9i9-87">
          <mxGeometry relative="1" as="geometry">
            <mxPoint x="1883" y="581" as="sourcePoint" />
            <mxPoint x="2013" y="466" as="targetPoint" />
          </mxGeometry>
        </mxCell>
        <mxCell id="5eVwMM55AhsTZu3MU9i9-95" value="" style="endArrow=none;html=1;rounded=0;exitX=1;exitY=0.3333333333333333;exitDx=0;exitDy=0;exitPerimeter=0;entryX=0;entryY=0.5;entryDx=0;entryDy=0;" edge="1" parent="1" source="5eVwMM55AhsTZu3MU9i9-88" target="5eVwMM55AhsTZu3MU9i9-87">
          <mxGeometry relative="1" as="geometry">
            <mxPoint x="1893" y="591" as="sourcePoint" />
            <mxPoint x="2023" y="476" as="targetPoint" />
          </mxGeometry>
        </mxCell>
        <mxCell id="5eVwMM55AhsTZu3MU9i9-96" value="" style="endArrow=none;html=1;rounded=0;exitX=1;exitY=0.5;exitDx=0;exitDy=0;entryX=0;entryY=0.3333333333333333;entryDx=0;entryDy=0;entryPerimeter=0;" edge="1" parent="1" source="5eVwMM55AhsTZu3MU9i9-87" target="5eVwMM55AhsTZu3MU9i9-89">
          <mxGeometry relative="1" as="geometry">
            <mxPoint x="1903" y="601" as="sourcePoint" />
            <mxPoint x="2033" y="486" as="targetPoint" />
          </mxGeometry>
        </mxCell>
        <mxCell id="5eVwMM55AhsTZu3MU9i9-98" value="Completar Informacion" style="ellipse;whiteSpace=wrap;html=1;" vertex="1" parent="1">
          <mxGeometry x="2003" y="601" width="140" height="70" as="geometry" />
        </mxCell>
        <mxCell id="5eVwMM55AhsTZu3MU9i9-100" value="Cerrar Sesion" style="ellipse;whiteSpace=wrap;html=1;" vertex="1" parent="1">
          <mxGeometry x="2003" y="946" width="140" height="70" as="geometry" />
        </mxCell>
        <mxCell id="5eVwMM55AhsTZu3MU9i9-102" value="" style="endArrow=none;html=1;rounded=0;exitX=1;exitY=1;exitDx=0;exitDy=0;exitPerimeter=0;entryX=0;entryY=0.5;entryDx=0;entryDy=0;" edge="1" parent="1" source="5eVwMM55AhsTZu3MU9i9-88" target="5eVwMM55AhsTZu3MU9i9-100">
          <mxGeometry relative="1" as="geometry">
            <mxPoint x="1808" y="461" as="sourcePoint" />
            <mxPoint x="2003" y="986" as="targetPoint" />
          </mxGeometry>
        </mxCell>
        <mxCell id="5eVwMM55AhsTZu3MU9i9-104" value="" style="endArrow=none;html=1;rounded=0;exitX=1;exitY=0.5;exitDx=0;exitDy=0;entryX=0;entryY=1;entryDx=0;entryDy=0;entryPerimeter=0;" edge="1" parent="1" source="5eVwMM55AhsTZu3MU9i9-98" target="5eVwMM55AhsTZu3MU9i9-89">
          <mxGeometry relative="1" as="geometry">
            <mxPoint x="1828" y="481" as="sourcePoint" />
            <mxPoint x="2353" y="471" as="targetPoint" />
          </mxGeometry>
        </mxCell>
        <mxCell id="5eVwMM55AhsTZu3MU9i9-105" value="Ofertas de empleo" style="ellipse;whiteSpace=wrap;html=1;" vertex="1" parent="1">
          <mxGeometry x="2003" y="686" width="140" height="70" as="geometry" />
        </mxCell>
        <mxCell id="5eVwMM55AhsTZu3MU9i9-106" value="" style="endArrow=none;html=1;rounded=0;exitX=1;exitY=0.3333333333333333;exitDx=0;exitDy=0;exitPerimeter=0;entryX=0;entryY=0.5;entryDx=0;entryDy=0;" edge="1" parent="1" source="5eVwMM55AhsTZu3MU9i9-88" target="5eVwMM55AhsTZu3MU9i9-105">
          <mxGeometry relative="1" as="geometry">
            <mxPoint x="1813" y="771" as="sourcePoint" />
            <mxPoint x="2013" y="556" as="targetPoint" />
          </mxGeometry>
        </mxCell>
        <mxCell id="5eVwMM55AhsTZu3MU9i9-110" value="Aplicar empleo" style="ellipse;whiteSpace=wrap;html=1;" vertex="1" parent="1">
          <mxGeometry x="2003" y="771" width="140" height="70" as="geometry" />
        </mxCell>
        <mxCell id="5eVwMM55AhsTZu3MU9i9-112" value="" style="endArrow=none;html=1;rounded=0;entryX=0;entryY=0.5;entryDx=0;entryDy=0;exitX=1;exitY=1;exitDx=0;exitDy=0;exitPerimeter=0;" edge="1" parent="1" source="5eVwMM55AhsTZu3MU9i9-88" target="5eVwMM55AhsTZu3MU9i9-110">
          <mxGeometry relative="1" as="geometry">
            <mxPoint x="2153" y="816" as="sourcePoint" />
            <mxPoint x="2388" y="781" as="targetPoint" />
          </mxGeometry>
        </mxCell>
        <mxCell id="5eVwMM55AhsTZu3MU9i9-114" value="" style="endArrow=none;html=1;rounded=0;entryX=0;entryY=1;entryDx=0;entryDy=0;exitX=1;exitY=0.5;exitDx=0;exitDy=0;entryPerimeter=0;" edge="1" parent="1" source="5eVwMM55AhsTZu3MU9i9-110" target="5eVwMM55AhsTZu3MU9i9-89">
          <mxGeometry relative="1" as="geometry">
            <mxPoint x="1823" y="821" as="sourcePoint" />
            <mxPoint x="2023" y="826" as="targetPoint" />
          </mxGeometry>
        </mxCell>
        <mxCell id="5eVwMM55AhsTZu3MU9i9-115" value="Reportes" style="ellipse;whiteSpace=wrap;html=1;" vertex="1" parent="1">
          <mxGeometry x="2003" y="856" width="140" height="70" as="geometry" />
        </mxCell>
        <mxCell id="5eVwMM55AhsTZu3MU9i9-116" value="" style="endArrow=none;html=1;rounded=0;entryX=0;entryY=0.5;entryDx=0;entryDy=0;exitX=1;exitY=1;exitDx=0;exitDy=0;exitPerimeter=0;" edge="1" parent="1" source="5eVwMM55AhsTZu3MU9i9-88" target="5eVwMM55AhsTZu3MU9i9-115">
          <mxGeometry relative="1" as="geometry">
            <mxPoint x="1813" y="811" as="sourcePoint" />
            <mxPoint x="2013" y="816" as="targetPoint" />
          </mxGeometry>
        </mxCell>
        <mxCell id="5eVwMM55AhsTZu3MU9i9-118" value="" style="endArrow=none;html=1;rounded=0;entryX=0;entryY=1;entryDx=0;entryDy=0;exitX=1;exitY=0.5;exitDx=0;exitDy=0;entryPerimeter=0;" edge="1" parent="1" source="5eVwMM55AhsTZu3MU9i9-115" target="5eVwMM55AhsTZu3MU9i9-89">
          <mxGeometry relative="1" as="geometry">
            <mxPoint x="2153" y="816" as="sourcePoint" />
            <mxPoint x="2373" y="571" as="targetPoint" />
          </mxGeometry>
        </mxCell>
        <mxCell id="5eVwMM55AhsTZu3MU9i9-119" value="" style="endArrow=none;html=1;rounded=0;entryX=1;entryY=1;entryDx=0;entryDy=0;exitX=0;exitY=0.5;exitDx=0;exitDy=0;entryPerimeter=0;" edge="1" parent="1" source="5eVwMM55AhsTZu3MU9i9-115" target="5eVwMM55AhsTZu3MU9i9-84">
          <mxGeometry relative="1" as="geometry">
            <mxPoint x="2163" y="826" as="sourcePoint" />
            <mxPoint x="2383" y="581" as="targetPoint" />
          </mxGeometry>
        </mxCell>
        <mxCell id="DiivEsyJtq7pHUNZ7dKd-43" style="rounded=0;orthogonalLoop=1;jettySize=auto;html=1;exitX=1;exitY=0.3333333333333333;exitDx=0;exitDy=0;exitPerimeter=0;entryX=0;entryY=0.5;entryDx=0;entryDy=0;endArrow=none;endFill=0;" edge="1" parent="1" source="5eVwMM55AhsTZu3MU9i9-120" target="DiivEsyJtq7pHUNZ7dKd-42">
          <mxGeometry relative="1" as="geometry" />
        </mxCell>
        <mxCell id="5eVwMM55AhsTZu3MU9i9-120" value="Administrador" style="shape=umlActor;verticalLabelPosition=bottom;verticalAlign=top;html=1;" vertex="1" parent="1">
          <mxGeometry x="2600" y="275.5" width="30" height="60" as="geometry" />
        </mxCell>
        <mxCell id="DiivEsyJtq7pHUNZ7dKd-62" style="rounded=0;orthogonalLoop=1;jettySize=auto;html=1;exitX=1;exitY=1;exitDx=0;exitDy=0;exitPerimeter=0;entryX=0;entryY=0.5;entryDx=0;entryDy=0;endArrow=none;endFill=0;" edge="1" parent="1" source="5eVwMM55AhsTZu3MU9i9-121" target="DiivEsyJtq7pHUNZ7dKd-70">
          <mxGeometry relative="1" as="geometry" />
        </mxCell>
        <mxCell id="DiivEsyJtq7pHUNZ7dKd-63" style="rounded=0;orthogonalLoop=1;jettySize=auto;html=1;exitX=1;exitY=1;exitDx=0;exitDy=0;exitPerimeter=0;entryX=0;entryY=0.5;entryDx=0;entryDy=0;endArrow=none;endFill=0;" edge="1" parent="1" source="5eVwMM55AhsTZu3MU9i9-121" target="DiivEsyJtq7pHUNZ7dKd-61">
          <mxGeometry relative="1" as="geometry" />
        </mxCell>
        <mxCell id="DiivEsyJtq7pHUNZ7dKd-66" style="rounded=0;orthogonalLoop=1;jettySize=auto;html=1;exitX=1;exitY=0.3333333333333333;exitDx=0;exitDy=0;exitPerimeter=0;entryX=0;entryY=0.5;entryDx=0;entryDy=0;endArrow=none;endFill=0;" edge="1" parent="1" source="5eVwMM55AhsTZu3MU9i9-121" target="DiivEsyJtq7pHUNZ7dKd-65">
          <mxGeometry relative="1" as="geometry" />
        </mxCell>
        <mxCell id="wugK7WXSN-6xL4nprbzl-14" style="rounded=0;orthogonalLoop=1;jettySize=auto;html=1;exitX=1;exitY=0.3333333333333333;exitDx=0;exitDy=0;exitPerimeter=0;entryX=0;entryY=0.5;entryDx=0;entryDy=0;endArrow=none;endFill=0;" edge="1" parent="1" source="5eVwMM55AhsTZu3MU9i9-121" target="wugK7WXSN-6xL4nprbzl-12">
          <mxGeometry relative="1" as="geometry" />
        </mxCell>
        <mxCell id="5eVwMM55AhsTZu3MU9i9-121" value="Solicitante" style="shape=umlActor;verticalLabelPosition=bottom;verticalAlign=top;html=1;" vertex="1" parent="1">
          <mxGeometry x="2530" y="785" width="30" height="60" as="geometry" />
        </mxCell>
        <mxCell id="DiivEsyJtq7pHUNZ7dKd-75" style="rounded=0;orthogonalLoop=1;jettySize=auto;html=1;exitX=0;exitY=0.3333333333333333;exitDx=0;exitDy=0;exitPerimeter=0;entryX=1;entryY=0.5;entryDx=0;entryDy=0;endArrow=none;endFill=0;" edge="1" parent="1" source="5eVwMM55AhsTZu3MU9i9-122" target="DiivEsyJtq7pHUNZ7dKd-74">
          <mxGeometry relative="1" as="geometry" />
        </mxCell>
        <mxCell id="DiivEsyJtq7pHUNZ7dKd-83" style="rounded=0;orthogonalLoop=1;jettySize=auto;html=1;exitX=0;exitY=0.3333333333333333;exitDx=0;exitDy=0;exitPerimeter=0;entryX=1;entryY=0.5;entryDx=0;entryDy=0;endArrow=none;endFill=0;" edge="1" parent="1" source="5eVwMM55AhsTZu3MU9i9-122" target="DiivEsyJtq7pHUNZ7dKd-82">
          <mxGeometry relative="1" as="geometry" />
        </mxCell>
        <mxCell id="DiivEsyJtq7pHUNZ7dKd-95" style="rounded=0;orthogonalLoop=1;jettySize=auto;html=1;exitX=0;exitY=0.3333333333333333;exitDx=0;exitDy=0;exitPerimeter=0;entryX=1;entryY=0.5;entryDx=0;entryDy=0;endArrow=none;endFill=0;" edge="1" parent="1" source="5eVwMM55AhsTZu3MU9i9-122" target="DiivEsyJtq7pHUNZ7dKd-85">
          <mxGeometry relative="1" as="geometry" />
        </mxCell>
        <mxCell id="DiivEsyJtq7pHUNZ7dKd-96" style="rounded=0;orthogonalLoop=1;jettySize=auto;html=1;exitX=0;exitY=0.3333333333333333;exitDx=0;exitDy=0;exitPerimeter=0;entryX=1;entryY=0.5;entryDx=0;entryDy=0;endArrow=none;endFill=0;" edge="1" parent="1" source="5eVwMM55AhsTZu3MU9i9-122" target="DiivEsyJtq7pHUNZ7dKd-86">
          <mxGeometry relative="1" as="geometry" />
        </mxCell>
        <mxCell id="DiivEsyJtq7pHUNZ7dKd-97" style="rounded=0;orthogonalLoop=1;jettySize=auto;html=1;exitX=0;exitY=0.3333333333333333;exitDx=0;exitDy=0;exitPerimeter=0;entryX=1;entryY=0.5;entryDx=0;entryDy=0;endArrow=none;endFill=0;" edge="1" parent="1" source="5eVwMM55AhsTZu3MU9i9-122" target="DiivEsyJtq7pHUNZ7dKd-87">
          <mxGeometry relative="1" as="geometry" />
        </mxCell>
        <mxCell id="DiivEsyJtq7pHUNZ7dKd-101" style="rounded=0;orthogonalLoop=1;jettySize=auto;html=1;exitX=0;exitY=0.3333333333333333;exitDx=0;exitDy=0;exitPerimeter=0;entryX=1;entryY=0.5;entryDx=0;entryDy=0;endArrow=none;endFill=0;" edge="1" parent="1" source="5eVwMM55AhsTZu3MU9i9-122" target="DiivEsyJtq7pHUNZ7dKd-99">
          <mxGeometry relative="1" as="geometry" />
        </mxCell>
        <mxCell id="DiivEsyJtq7pHUNZ7dKd-102" style="rounded=0;orthogonalLoop=1;jettySize=auto;html=1;exitX=0;exitY=0.3333333333333333;exitDx=0;exitDy=0;exitPerimeter=0;entryX=1;entryY=0.5;entryDx=0;entryDy=0;endArrow=none;endFill=0;" edge="1" parent="1" source="5eVwMM55AhsTZu3MU9i9-122" target="DiivEsyJtq7pHUNZ7dKd-100">
          <mxGeometry relative="1" as="geometry" />
        </mxCell>
        <mxCell id="wugK7WXSN-6xL4nprbzl-15" style="rounded=0;orthogonalLoop=1;jettySize=auto;html=1;exitX=0;exitY=0.3333333333333333;exitDx=0;exitDy=0;exitPerimeter=0;entryX=1;entryY=0.5;entryDx=0;entryDy=0;endArrow=none;endFill=0;" edge="1" parent="1" source="5eVwMM55AhsTZu3MU9i9-122" target="wugK7WXSN-6xL4nprbzl-13">
          <mxGeometry relative="1" as="geometry" />
        </mxCell>
        <mxCell id="5eVwMM55AhsTZu3MU9i9-122" value="Empleador" style="shape=umlActor;verticalLabelPosition=bottom;verticalAlign=top;html=1;" vertex="1" parent="1">
          <mxGeometry x="3810" y="424.5" width="30" height="60" as="geometry" />
        </mxCell>
        <mxCell id="DiivEsyJtq7pHUNZ7dKd-108" style="rounded=0;orthogonalLoop=1;jettySize=auto;html=1;exitX=0;exitY=0.3333333333333333;exitDx=0;exitDy=0;exitPerimeter=0;entryX=1;entryY=0.5;entryDx=0;entryDy=0;endArrow=none;endFill=0;" edge="1" parent="1" source="5eVwMM55AhsTZu3MU9i9-123" target="DiivEsyJtq7pHUNZ7dKd-106">
          <mxGeometry relative="1" as="geometry" />
        </mxCell>
        <mxCell id="5eVwMM55AhsTZu3MU9i9-123" value="Invitado" style="shape=umlActor;verticalLabelPosition=bottom;verticalAlign=top;html=1;" vertex="1" parent="1">
          <mxGeometry x="3810" y="904" width="30" height="60" as="geometry" />
        </mxCell>
        <mxCell id="5eVwMM55AhsTZu3MU9i9-124" style="edgeStyle=orthogonalEdgeStyle;rounded=0;orthogonalLoop=1;jettySize=auto;html=1;entryX=0.5;entryY=0;entryDx=0;entryDy=0;entryPerimeter=0;" edge="1" parent="1" target="5eVwMM55AhsTZu3MU9i9-120">
          <mxGeometry relative="1" as="geometry">
            <mxPoint x="3100" y="55" as="sourcePoint" />
          </mxGeometry>
        </mxCell>
        <mxCell id="5eVwMM55AhsTZu3MU9i9-125" style="edgeStyle=orthogonalEdgeStyle;rounded=0;orthogonalLoop=1;jettySize=auto;html=1;entryX=0.5;entryY=0;entryDx=0;entryDy=0;entryPerimeter=0;" edge="1" parent="1" target="5eVwMM55AhsTZu3MU9i9-122">
          <mxGeometry relative="1" as="geometry">
            <mxPoint x="3220" y="55" as="sourcePoint" />
          </mxGeometry>
        </mxCell>
        <mxCell id="5eVwMM55AhsTZu3MU9i9-126" style="edgeStyle=orthogonalEdgeStyle;rounded=0;orthogonalLoop=1;jettySize=auto;html=1;entryX=0.5;entryY=0;entryDx=0;entryDy=0;entryPerimeter=0;" edge="1" parent="1" target="5eVwMM55AhsTZu3MU9i9-121">
          <mxGeometry relative="1" as="geometry">
            <mxPoint x="3100" y="65" as="sourcePoint" />
          </mxGeometry>
        </mxCell>
        <mxCell id="5eVwMM55AhsTZu3MU9i9-129" value="Crear Usuario" style="ellipse;whiteSpace=wrap;html=1;" vertex="1" parent="1">
          <mxGeometry x="3010" y="151.25" width="140" height="49" as="geometry" />
        </mxCell>
        <mxCell id="5eVwMM55AhsTZu3MU9i9-130" value="Iniciar Sesión" style="ellipse;whiteSpace=wrap;html=1;" vertex="1" parent="1">
          <mxGeometry x="3170" y="135" width="140" height="49" as="geometry" />
        </mxCell>
        <mxCell id="5eVwMM55AhsTZu3MU9i9-131" value="Cerrar Sesión" style="ellipse;whiteSpace=wrap;html=1;" vertex="1" parent="1">
          <mxGeometry x="3090" y="205.5" width="140" height="49" as="geometry" />
        </mxCell>
        <mxCell id="5eVwMM55AhsTZu3MU9i9-132" value="Dashboard" style="ellipse;whiteSpace=wrap;html=1;" vertex="1" parent="1">
          <mxGeometry x="2740" y="156" width="140" height="39.5" as="geometry" />
        </mxCell>
        <mxCell id="5eVwMM55AhsTZu3MU9i9-133" value="Editar Categoría" style="ellipse;whiteSpace=wrap;html=1;" vertex="1" parent="1">
          <mxGeometry x="2740" y="205.5" width="140" height="40.5" as="geometry" />
        </mxCell>
        <mxCell id="5eVwMM55AhsTZu3MU9i9-134" value="Agregar Categoria" style="ellipse;whiteSpace=wrap;html=1;" vertex="1" parent="1">
          <mxGeometry x="2740" y="265" width="140" height="40.5" as="geometry" />
        </mxCell>
        <mxCell id="5eVwMM55AhsTZu3MU9i9-135" value="Comisión" style="ellipse;whiteSpace=wrap;html=1;" vertex="1" parent="1">
          <mxGeometry x="2740" y="325.5" width="140" height="40.5" as="geometry" />
        </mxCell>
        <mxCell id="5eVwMM55AhsTZu3MU9i9-136" value="Completar Informacion" style="ellipse;whiteSpace=wrap;html=1;" vertex="1" parent="1">
          <mxGeometry x="3249" y="202.75" width="140" height="46.5" as="geometry" />
        </mxCell>
        <mxCell id="5eVwMM55AhsTZu3MU9i9-138" value="Crear Oferta" style="ellipse;whiteSpace=wrap;html=1;" vertex="1" parent="1">
          <mxGeometry x="3469" y="332" width="140" height="40" as="geometry" />
        </mxCell>
        <mxCell id="5eVwMM55AhsTZu3MU9i9-139" value="Editar Oferta" style="ellipse;whiteSpace=wrap;html=1;" vertex="1" parent="1">
          <mxGeometry x="3469" y="426.5" width="140" height="36.5" as="geometry" />
        </mxCell>
        <mxCell id="5eVwMM55AhsTZu3MU9i9-151" value="Búsqueda de Empleo" style="ellipse;whiteSpace=wrap;html=1;" vertex="1" parent="1">
          <mxGeometry x="3430" y="877" width="140" height="43" as="geometry" />
        </mxCell>
        <mxCell id="5eVwMM55AhsTZu3MU9i9-152" value="Perfil Empresa" style="ellipse;whiteSpace=wrap;html=1;" vertex="1" parent="1">
          <mxGeometry x="3430" y="934" width="140" height="38" as="geometry" />
        </mxCell>
        <mxCell id="5eVwMM55AhsTZu3MU9i9-153" value="" style="endArrow=none;html=1;rounded=0;exitX=1;exitY=0.3333333333333333;exitDx=0;exitDy=0;exitPerimeter=0;entryX=0;entryY=0.5;entryDx=0;entryDy=0;" edge="1" parent="1" source="5eVwMM55AhsTZu3MU9i9-120" target="5eVwMM55AhsTZu3MU9i9-132">
          <mxGeometry relative="1" as="geometry">
            <mxPoint x="3240" y="535" as="sourcePoint" />
            <mxPoint x="3400" y="535" as="targetPoint" />
          </mxGeometry>
        </mxCell>
        <mxCell id="5eVwMM55AhsTZu3MU9i9-154" value="" style="endArrow=none;html=1;rounded=0;exitX=1;exitY=0.3333333333333333;exitDx=0;exitDy=0;exitPerimeter=0;entryX=0;entryY=0.5;entryDx=0;entryDy=0;" edge="1" parent="1" source="5eVwMM55AhsTZu3MU9i9-120" target="5eVwMM55AhsTZu3MU9i9-135">
          <mxGeometry relative="1" as="geometry">
            <mxPoint x="2640" y="335" as="sourcePoint" />
            <mxPoint x="2750" y="171" as="targetPoint" />
          </mxGeometry>
        </mxCell>
        <mxCell id="5eVwMM55AhsTZu3MU9i9-155" value="" style="endArrow=none;html=1;rounded=0;entryX=0;entryY=0.5;entryDx=0;entryDy=0;exitX=1;exitY=0.3333333333333333;exitDx=0;exitDy=0;exitPerimeter=0;" edge="1" parent="1" source="5eVwMM55AhsTZu3MU9i9-120" target="5eVwMM55AhsTZu3MU9i9-134">
          <mxGeometry relative="1" as="geometry">
            <mxPoint x="2630" y="335" as="sourcePoint" />
            <mxPoint x="2760" y="181" as="targetPoint" />
          </mxGeometry>
        </mxCell>
        <mxCell id="5eVwMM55AhsTZu3MU9i9-156" value="" style="endArrow=none;html=1;rounded=0;exitX=1;exitY=0.3333333333333333;exitDx=0;exitDy=0;exitPerimeter=0;entryX=0;entryY=0.5;entryDx=0;entryDy=0;" edge="1" parent="1" source="5eVwMM55AhsTZu3MU9i9-120" target="5eVwMM55AhsTZu3MU9i9-133">
          <mxGeometry relative="1" as="geometry">
            <mxPoint x="2660" y="355" as="sourcePoint" />
            <mxPoint x="2770" y="191" as="targetPoint" />
          </mxGeometry>
        </mxCell>
        <mxCell id="5eVwMM55AhsTZu3MU9i9-158" value="" style="endArrow=none;html=1;rounded=0;exitX=1;exitY=0.3333333333333333;exitDx=0;exitDy=0;exitPerimeter=0;entryX=0;entryY=0.5;entryDx=0;entryDy=0;" edge="1" parent="1" source="5eVwMM55AhsTZu3MU9i9-121" target="DiivEsyJtq7pHUNZ7dKd-46">
          <mxGeometry relative="1" as="geometry">
            <mxPoint x="2680" y="375" as="sourcePoint" />
            <mxPoint x="2740" y="590" as="targetPoint" />
          </mxGeometry>
        </mxCell>
        <mxCell id="5eVwMM55AhsTZu3MU9i9-159" value="" style="endArrow=none;html=1;rounded=0;exitX=1;exitY=0.3333333333333333;exitDx=0;exitDy=0;exitPerimeter=0;entryX=0;entryY=0.5;entryDx=0;entryDy=0;" edge="1" parent="1" source="5eVwMM55AhsTZu3MU9i9-121" target="DiivEsyJtq7pHUNZ7dKd-47">
          <mxGeometry relative="1" as="geometry">
            <mxPoint x="2690" y="385" as="sourcePoint" />
            <mxPoint x="2740" y="650" as="targetPoint" />
          </mxGeometry>
        </mxCell>
        <mxCell id="5eVwMM55AhsTZu3MU9i9-160" value="" style="endArrow=none;html=1;rounded=0;exitX=1;exitY=0.3333333333333333;exitDx=0;exitDy=0;exitPerimeter=0;entryX=0;entryY=0.5;entryDx=0;entryDy=0;" edge="1" parent="1" source="5eVwMM55AhsTZu3MU9i9-121" target="DiivEsyJtq7pHUNZ7dKd-49">
          <mxGeometry relative="1" as="geometry">
            <mxPoint x="2700" y="395" as="sourcePoint" />
            <mxPoint x="2740" y="720" as="targetPoint" />
          </mxGeometry>
        </mxCell>
        <mxCell id="5eVwMM55AhsTZu3MU9i9-162" value="" style="endArrow=none;html=1;rounded=0;exitX=1;exitY=0.3333333333333333;exitDx=0;exitDy=0;exitPerimeter=0;entryX=0;entryY=0.5;entryDx=0;entryDy=0;" edge="1" parent="1" source="5eVwMM55AhsTZu3MU9i9-121" target="DiivEsyJtq7pHUNZ7dKd-51">
          <mxGeometry relative="1" as="geometry">
            <mxPoint x="2720" y="415" as="sourcePoint" />
            <mxPoint x="2740" y="855" as="targetPoint" />
          </mxGeometry>
        </mxCell>
        <mxCell id="5eVwMM55AhsTZu3MU9i9-163" value="" style="endArrow=none;html=1;rounded=0;exitX=1;exitY=0.3333333333333333;exitDx=0;exitDy=0;exitPerimeter=0;entryX=0;entryY=0.5;entryDx=0;entryDy=0;" edge="1" parent="1" source="5eVwMM55AhsTZu3MU9i9-121" target="DiivEsyJtq7pHUNZ7dKd-53">
          <mxGeometry relative="1" as="geometry">
            <mxPoint x="2730" y="425" as="sourcePoint" />
            <mxPoint x="2740" y="920" as="targetPoint" />
          </mxGeometry>
        </mxCell>
        <mxCell id="5eVwMM55AhsTZu3MU9i9-164" value="" style="endArrow=none;html=1;rounded=0;exitX=1;exitY=0.3333333333333333;exitDx=0;exitDy=0;exitPerimeter=0;entryX=0;entryY=0.5;entryDx=0;entryDy=0;" edge="1" parent="1" source="5eVwMM55AhsTZu3MU9i9-121" target="DiivEsyJtq7pHUNZ7dKd-54">
          <mxGeometry relative="1" as="geometry">
            <mxPoint x="2740" y="435" as="sourcePoint" />
            <mxPoint x="2740" y="985" as="targetPoint" />
          </mxGeometry>
        </mxCell>
        <mxCell id="5eVwMM55AhsTZu3MU9i9-165" value="" style="endArrow=none;html=1;rounded=0;exitX=1;exitY=0.3333333333333333;exitDx=0;exitDy=0;exitPerimeter=0;entryX=0;entryY=0.5;entryDx=0;entryDy=0;" edge="1" parent="1" source="5eVwMM55AhsTZu3MU9i9-121" target="DiivEsyJtq7pHUNZ7dKd-59">
          <mxGeometry relative="1" as="geometry">
            <mxPoint x="2750" y="445" as="sourcePoint" />
            <mxPoint x="2730" y="944" as="targetPoint" />
          </mxGeometry>
        </mxCell>
        <mxCell id="5eVwMM55AhsTZu3MU9i9-166" value="" style="endArrow=none;html=1;rounded=0;exitX=1;exitY=0.5;exitDx=0;exitDy=0;entryX=0;entryY=0.3333333333333333;entryDx=0;entryDy=0;entryPerimeter=0;" edge="1" parent="1" source="DiivEsyJtq7pHUNZ7dKd-72" target="5eVwMM55AhsTZu3MU9i9-122">
          <mxGeometry relative="1" as="geometry">
            <mxPoint x="2760" y="455" as="sourcePoint" />
            <mxPoint x="2870" y="291" as="targetPoint" />
          </mxGeometry>
        </mxCell>
        <mxCell id="5eVwMM55AhsTZu3MU9i9-167" value="" style="endArrow=none;html=1;rounded=0;exitX=1;exitY=0.5;exitDx=0;exitDy=0;entryX=0;entryY=0.3333333333333333;entryDx=0;entryDy=0;entryPerimeter=0;" edge="1" parent="1" source="DiivEsyJtq7pHUNZ7dKd-73" target="5eVwMM55AhsTZu3MU9i9-122">
          <mxGeometry relative="1" as="geometry">
            <mxPoint x="3779.999999999998" y="244.5" as="sourcePoint" />
            <mxPoint x="3700" y="375" as="targetPoint" />
          </mxGeometry>
        </mxCell>
        <mxCell id="5eVwMM55AhsTZu3MU9i9-168" value="" style="endArrow=none;html=1;rounded=0;exitX=1;exitY=0.5;exitDx=0;exitDy=0;entryX=0;entryY=0.3333333333333333;entryDx=0;entryDy=0;entryPerimeter=0;" edge="1" parent="1" source="5eVwMM55AhsTZu3MU9i9-138" target="5eVwMM55AhsTZu3MU9i9-122">
          <mxGeometry relative="1" as="geometry">
            <mxPoint x="3630" y="190" as="sourcePoint" />
            <mxPoint x="3710" y="385" as="targetPoint" />
          </mxGeometry>
        </mxCell>
        <mxCell id="5eVwMM55AhsTZu3MU9i9-169" value="" style="endArrow=none;html=1;rounded=0;exitX=1;exitY=0.5;exitDx=0;exitDy=0;entryX=0;entryY=0.3333333333333333;entryDx=0;entryDy=0;entryPerimeter=0;" edge="1" parent="1" source="5eVwMM55AhsTZu3MU9i9-139" target="5eVwMM55AhsTZu3MU9i9-122">
          <mxGeometry relative="1" as="geometry">
            <mxPoint x="3469" y="236" as="sourcePoint" />
            <mxPoint x="3549" y="431" as="targetPoint" />
          </mxGeometry>
        </mxCell>
        <mxCell id="5eVwMM55AhsTZu3MU9i9-171" value="" style="endArrow=none;html=1;rounded=0;exitX=1;exitY=0.5;exitDx=0;exitDy=0;entryX=0;entryY=0.3333333333333333;entryDx=0;entryDy=0;entryPerimeter=0;" edge="1" parent="1" source="5eVwMM55AhsTZu3MU9i9-151" target="5eVwMM55AhsTZu3MU9i9-123">
          <mxGeometry relative="1" as="geometry">
            <mxPoint x="3670" y="230" as="sourcePoint" />
            <mxPoint x="3690" y="375" as="targetPoint" />
          </mxGeometry>
        </mxCell>
        <mxCell id="5eVwMM55AhsTZu3MU9i9-173" value="" style="endArrow=none;html=1;rounded=0;exitX=1;exitY=0.5;exitDx=0;exitDy=0;entryX=0;entryY=0.3333333333333333;entryDx=0;entryDy=0;entryPerimeter=0;" edge="1" parent="1" source="5eVwMM55AhsTZu3MU9i9-152" target="5eVwMM55AhsTZu3MU9i9-123">
          <mxGeometry relative="1" as="geometry">
            <mxPoint x="3630" y="660" as="sourcePoint" />
            <mxPoint x="3750" y="600" as="targetPoint" />
          </mxGeometry>
        </mxCell>
        <mxCell id="5eVwMM55AhsTZu3MU9i9-174" value="" style="endArrow=none;html=1;rounded=0;exitX=0;exitY=0.3333333333333333;exitDx=0;exitDy=0;entryX=0.5;entryY=0;entryDx=0;entryDy=0;exitPerimeter=0;" edge="1" parent="1" source="5eVwMM55AhsTZu3MU9i9-128" target="5eVwMM55AhsTZu3MU9i9-129">
          <mxGeometry relative="1" as="geometry">
            <mxPoint x="4090" y="153.5" as="sourcePoint" />
            <mxPoint x="4179" y="294.5" as="targetPoint" />
          </mxGeometry>
        </mxCell>
        <mxCell id="5eVwMM55AhsTZu3MU9i9-175" value="" style="endArrow=none;html=1;rounded=0;exitX=1;exitY=0.3333333333333333;exitDx=0;exitDy=0;entryX=0.5;entryY=0;entryDx=0;entryDy=0;exitPerimeter=0;" edge="1" parent="1" source="5eVwMM55AhsTZu3MU9i9-128" target="5eVwMM55AhsTZu3MU9i9-130">
          <mxGeometry relative="1" as="geometry">
            <mxPoint x="3975" y="59" as="sourcePoint" />
            <mxPoint x="3920" y="149" as="targetPoint" />
          </mxGeometry>
        </mxCell>
        <mxCell id="5eVwMM55AhsTZu3MU9i9-176" value="" style="endArrow=none;html=1;rounded=0;entryX=0.5;entryY=0;entryDx=0;entryDy=0;" edge="1" parent="1" source="5eVwMM55AhsTZu3MU9i9-128" target="5eVwMM55AhsTZu3MU9i9-131">
          <mxGeometry relative="1" as="geometry">
            <mxPoint x="3160" y="65" as="sourcePoint" />
            <mxPoint x="3110" y="155" as="targetPoint" />
          </mxGeometry>
        </mxCell>
        <mxCell id="5eVwMM55AhsTZu3MU9i9-177" value="Include" style="endArrow=open;endSize=12;dashed=1;html=1;rounded=0;exitX=1;exitY=0.5;exitDx=0;exitDy=0;entryX=0;entryY=0.5;entryDx=0;entryDy=0;" edge="1" parent="1" source="5eVwMM55AhsTZu3MU9i9-133" target="5eVwMM55AhsTZu3MU9i9-178">
          <mxGeometry width="160" relative="1" as="geometry">
            <mxPoint x="2902" y="410.13" as="sourcePoint" />
            <mxPoint x="3062" y="410.13" as="targetPoint" />
          </mxGeometry>
        </mxCell>
        <mxCell id="5eVwMM55AhsTZu3MU9i9-178" value="Gestion de Categorias" style="ellipse;whiteSpace=wrap;html=1;" vertex="1" parent="1">
          <mxGeometry x="2950" y="230.5" width="140" height="49" as="geometry" />
        </mxCell>
        <mxCell id="5eVwMM55AhsTZu3MU9i9-179" value="Include" style="endArrow=open;endSize=12;dashed=1;html=1;rounded=0;exitX=1;exitY=0.5;exitDx=0;exitDy=0;entryX=0;entryY=0.5;entryDx=0;entryDy=0;" edge="1" parent="1" source="5eVwMM55AhsTZu3MU9i9-134" target="5eVwMM55AhsTZu3MU9i9-178">
          <mxGeometry width="160" relative="1" as="geometry">
            <mxPoint x="2890" y="251" as="sourcePoint" />
            <mxPoint x="3100" y="310" as="targetPoint" />
          </mxGeometry>
        </mxCell>
        <mxCell id="5eVwMM55AhsTZu3MU9i9-180" value="Gestion de Ofertas" style="ellipse;whiteSpace=wrap;html=1;" vertex="1" parent="1">
          <mxGeometry x="3239" y="375.5" width="140" height="49" as="geometry" />
        </mxCell>
        <mxCell id="5eVwMM55AhsTZu3MU9i9-181" value="Include" style="endArrow=open;endSize=12;dashed=1;html=1;rounded=0;exitX=0;exitY=0.5;exitDx=0;exitDy=0;entryX=1;entryY=0.5;entryDx=0;entryDy=0;" edge="1" parent="1" source="5eVwMM55AhsTZu3MU9i9-138" target="5eVwMM55AhsTZu3MU9i9-180">
          <mxGeometry width="160" relative="1" as="geometry">
            <mxPoint x="2890" y="251" as="sourcePoint" />
            <mxPoint x="2980" y="300" as="targetPoint" />
          </mxGeometry>
        </mxCell>
        <mxCell id="5eVwMM55AhsTZu3MU9i9-182" value="Include" style="endArrow=open;endSize=12;dashed=1;html=1;rounded=0;exitX=0;exitY=0.5;exitDx=0;exitDy=0;entryX=1;entryY=0.5;entryDx=0;entryDy=0;" edge="1" parent="1" source="5eVwMM55AhsTZu3MU9i9-139" target="5eVwMM55AhsTZu3MU9i9-180">
          <mxGeometry width="160" relative="1" as="geometry">
            <mxPoint x="3480" y="340" as="sourcePoint" />
            <mxPoint x="3360" y="355" as="targetPoint" />
          </mxGeometry>
        </mxCell>
        <mxCell id="5eVwMM55AhsTZu3MU9i9-183" value="Ofertas de Empleo" style="ellipse;whiteSpace=wrap;html=1;" vertex="1" parent="1">
          <mxGeometry x="3005" y="771" width="140" height="49" as="geometry" />
        </mxCell>
        <mxCell id="5eVwMM55AhsTZu3MU9i9-185" value="Include" style="endArrow=open;endSize=12;dashed=1;html=1;rounded=0;entryX=0;entryY=0.5;entryDx=0;entryDy=0;exitX=1;exitY=0.5;exitDx=0;exitDy=0;" edge="1" parent="1" source="DiivEsyJtq7pHUNZ7dKd-51" target="5eVwMM55AhsTZu3MU9i9-183">
          <mxGeometry width="160" relative="1" as="geometry">
            <mxPoint x="2950" y="861" as="sourcePoint" />
            <mxPoint x="3040" y="981" as="targetPoint" />
          </mxGeometry>
        </mxCell>
        <mxCell id="5eVwMM55AhsTZu3MU9i9-187" value="Include" style="endArrow=open;endSize=12;dashed=1;html=1;rounded=0;entryX=0;entryY=0.5;entryDx=0;entryDy=0;exitX=1;exitY=0.5;exitDx=0;exitDy=0;" edge="1" parent="1" source="DiivEsyJtq7pHUNZ7dKd-47" target="DiivEsyJtq7pHUNZ7dKd-48">
          <mxGeometry width="160" relative="1" as="geometry">
            <mxPoint x="2880" y="656" as="sourcePoint" />
            <mxPoint x="2959.999999999999" y="631" as="targetPoint" />
          </mxGeometry>
        </mxCell>
        <mxCell id="5eVwMM55AhsTZu3MU9i9-188" value="Include" style="endArrow=open;endSize=12;dashed=1;html=1;rounded=0;entryX=0.007;entryY=0.607;entryDx=0;entryDy=0;exitX=1;exitY=0.5;exitDx=0;exitDy=0;entryPerimeter=0;" edge="1" parent="1" source="DiivEsyJtq7pHUNZ7dKd-46" target="DiivEsyJtq7pHUNZ7dKd-48">
          <mxGeometry width="160" relative="1" as="geometry">
            <mxPoint x="2880" y="596" as="sourcePoint" />
            <mxPoint x="2959.999999999999" y="631" as="targetPoint" />
          </mxGeometry>
        </mxCell>
        <mxCell id="u_QHIvNHBWL9RGwi2mKn-7" value="" style="endArrow=none;html=1;rounded=0;exitX=0.5;exitY=0.5;exitDx=0;exitDy=0;exitPerimeter=0;entryX=0.47;entryY=1.048;entryDx=0;entryDy=0;entryPerimeter=0;edgeStyle=orthogonalEdgeStyle;" edge="1" parent="1" source="5eVwMM55AhsTZu3MU9i9-7" target="u_QHIvNHBWL9RGwi2mKn-11">
          <mxGeometry width="50" height="50" relative="1" as="geometry">
            <mxPoint x="110" y="380.5" as="sourcePoint" />
            <mxPoint x="160" y="330.5" as="targetPoint" />
            <Array as="points">
              <mxPoint x="133" y="449.5" />
            </Array>
          </mxGeometry>
        </mxCell>
        <mxCell id="u_QHIvNHBWL9RGwi2mKn-8" value="" style="endArrow=none;html=1;rounded=0;exitX=0.5;exitY=0.5;exitDx=0;exitDy=0;exitPerimeter=0;entryX=0.484;entryY=0.984;entryDx=0;entryDy=0;entryPerimeter=0;edgeStyle=orthogonalEdgeStyle;" edge="1" parent="1" source="5eVwMM55AhsTZu3MU9i9-8" target="u_QHIvNHBWL9RGwi2mKn-11">
          <mxGeometry width="50" height="50" relative="1" as="geometry">
            <mxPoint x="95" y="459.5" as="sourcePoint" />
            <mxPoint x="135" y="263.5" as="targetPoint" />
            <Array as="points">
              <mxPoint x="134" y="449.5" />
            </Array>
          </mxGeometry>
        </mxCell>
        <mxCell id="DiivEsyJtq7pHUNZ7dKd-3" style="rounded=0;orthogonalLoop=1;jettySize=auto;html=1;exitX=0;exitY=0.3333333333333333;exitDx=0;exitDy=0;exitPerimeter=0;entryX=0;entryY=0.5;entryDx=0;entryDy=0;endArrow=none;endFill=0;" edge="1" parent="1" source="u_QHIvNHBWL9RGwi2mKn-1" target="DiivEsyJtq7pHUNZ7dKd-2">
          <mxGeometry relative="1" as="geometry" />
        </mxCell>
        <mxCell id="lPMzp1araiUFEV0C0I6o-2" style="rounded=0;orthogonalLoop=1;jettySize=auto;html=1;exitX=1;exitY=0.3333333333333333;exitDx=0;exitDy=0;exitPerimeter=0;entryX=0;entryY=0.5;entryDx=0;entryDy=0;endArrow=none;endFill=0;" edge="1" parent="1" source="u_QHIvNHBWL9RGwi2mKn-1" target="lPMzp1araiUFEV0C0I6o-1">
          <mxGeometry relative="1" as="geometry" />
        </mxCell>
        <mxCell id="wugK7WXSN-6xL4nprbzl-2" style="rounded=0;orthogonalLoop=1;jettySize=auto;html=1;exitX=1;exitY=1;exitDx=0;exitDy=0;exitPerimeter=0;entryX=0;entryY=0.5;entryDx=0;entryDy=0;endArrow=none;endFill=0;" edge="1" parent="1" source="u_QHIvNHBWL9RGwi2mKn-1" target="wugK7WXSN-6xL4nprbzl-1">
          <mxGeometry relative="1" as="geometry" />
        </mxCell>
        <mxCell id="wugK7WXSN-6xL4nprbzl-6" style="rounded=0;orthogonalLoop=1;jettySize=auto;html=1;exitX=1;exitY=1;exitDx=0;exitDy=0;exitPerimeter=0;entryX=0;entryY=0.5;entryDx=0;entryDy=0;endArrow=none;endFill=0;" edge="1" parent="1" source="u_QHIvNHBWL9RGwi2mKn-1" target="wugK7WXSN-6xL4nprbzl-4">
          <mxGeometry relative="1" as="geometry" />
        </mxCell>
        <mxCell id="u_QHIvNHBWL9RGwi2mKn-1" value="Usuario" style="shape=umlActor;verticalLabelPosition=bottom;verticalAlign=top;html=1;" vertex="1" parent="1">
          <mxGeometry x="120" y="209.5" width="30" height="60" as="geometry" />
        </mxCell>
        <mxCell id="u_QHIvNHBWL9RGwi2mKn-11" value="Extends" style="text;html=1;align=center;verticalAlign=middle;resizable=0;points=[];autosize=1;strokeColor=none;fillColor=none;" vertex="1" parent="1">
          <mxGeometry x="100" y="319.5" width="70" height="30" as="geometry" />
        </mxCell>
        <mxCell id="u_QHIvNHBWL9RGwi2mKn-12" value="" style="endArrow=none;html=1;rounded=0;exitX=0.497;exitY=0;exitDx=0;exitDy=0;exitPerimeter=0;" edge="1" parent="1" source="u_QHIvNHBWL9RGwi2mKn-11">
          <mxGeometry width="50" height="50" relative="1" as="geometry">
            <mxPoint x="60" y="410.5" as="sourcePoint" />
            <mxPoint x="135" y="290.5" as="targetPoint" />
          </mxGeometry>
        </mxCell>
        <mxCell id="u_QHIvNHBWL9RGwi2mKn-14" value="&lt;font style=&quot;font-size: 18px;&quot;&gt;Registro e Inicio de sesión&lt;/font&gt;" style="text;html=1;strokeColor=none;fillColor=none;align=center;verticalAlign=middle;whiteSpace=wrap;rounded=0;" vertex="1" parent="1">
          <mxGeometry x="339" y="124" width="150" height="30" as="geometry" />
        </mxCell>
        <mxCell id="DiivEsyJtq7pHUNZ7dKd-2" value="Cierre de Sesión" style="ellipse;whiteSpace=wrap;html=1;" vertex="1" parent="1">
          <mxGeometry x="350" y="450" width="140" height="70" as="geometry" />
        </mxCell>
        <mxCell id="DiivEsyJtq7pHUNZ7dKd-6" value="Reportes" style="ellipse;whiteSpace=wrap;html=1;" vertex="1" parent="1">
          <mxGeometry x="1200" y="510" width="140" height="70" as="geometry" />
        </mxCell>
        <mxCell id="DiivEsyJtq7pHUNZ7dKd-7" style="rounded=0;orthogonalLoop=1;jettySize=auto;html=1;exitX=0;exitY=0.3333333333333333;exitDx=0;exitDy=0;exitPerimeter=0;entryX=0;entryY=0.5;entryDx=0;entryDy=0;endArrow=none;endFill=0;" edge="1" parent="1" source="5eVwMM55AhsTZu3MU9i9-26" target="DiivEsyJtq7pHUNZ7dKd-6">
          <mxGeometry relative="1" as="geometry" />
        </mxCell>
        <mxCell id="DiivEsyJtq7pHUNZ7dKd-10" value="&lt;font style=&quot;font-size: 18px;&quot;&gt;Administrador&lt;/font&gt;" style="text;html=1;strokeColor=none;fillColor=none;align=center;verticalAlign=middle;whiteSpace=wrap;rounded=0;" vertex="1" parent="1">
          <mxGeometry x="334" y="720" width="150" height="30" as="geometry" />
        </mxCell>
        <mxCell id="DiivEsyJtq7pHUNZ7dKd-11" value="Aplicar de empleo" style="ellipse;whiteSpace=wrap;html=1;" vertex="1" parent="1">
          <mxGeometry x="1200" y="240" width="140" height="70" as="geometry" />
        </mxCell>
        <mxCell id="DiivEsyJtq7pHUNZ7dKd-12" style="rounded=0;orthogonalLoop=1;jettySize=auto;html=1;exitX=0.5;exitY=0;exitDx=0;exitDy=0;exitPerimeter=0;entryX=0;entryY=0.5;entryDx=0;entryDy=0;endArrow=none;endFill=0;" edge="1" parent="1" source="5eVwMM55AhsTZu3MU9i9-26" target="DiivEsyJtq7pHUNZ7dKd-11">
          <mxGeometry relative="1" as="geometry" />
        </mxCell>
        <mxCell id="DiivEsyJtq7pHUNZ7dKd-18" style="rounded=0;orthogonalLoop=1;jettySize=auto;html=1;exitX=0;exitY=0.3333333333333333;exitDx=0;exitDy=0;exitPerimeter=0;entryX=1;entryY=0.5;entryDx=0;entryDy=0;endArrow=none;endFill=0;" edge="1" parent="1" source="DiivEsyJtq7pHUNZ7dKd-15" target="5eVwMM55AhsTZu3MU9i9-4">
          <mxGeometry relative="1" as="geometry" />
        </mxCell>
        <mxCell id="DiivEsyJtq7pHUNZ7dKd-15" value="Invitado" style="shape=umlActor;verticalLabelPosition=bottom;verticalAlign=top;html=1;" vertex="1" parent="1">
          <mxGeometry x="650" y="223.5" width="30" height="60" as="geometry" />
        </mxCell>
        <mxCell id="DiivEsyJtq7pHUNZ7dKd-19" value="Invitado" style="shape=umlActor;verticalLabelPosition=bottom;verticalAlign=top;html=1;" vertex="1" parent="1">
          <mxGeometry x="1793" y="188" width="30" height="60" as="geometry" />
        </mxCell>
        <mxCell id="DiivEsyJtq7pHUNZ7dKd-20" value="" style="html=1;whiteSpace=wrap;" vertex="1" parent="1">
          <mxGeometry x="1933" y="114" width="280" height="160" as="geometry" />
        </mxCell>
        <mxCell id="DiivEsyJtq7pHUNZ7dKd-22" value="Oferta de empleo" style="ellipse;whiteSpace=wrap;html=1;" vertex="1" parent="1">
          <mxGeometry x="2003" y="155.75" width="140" height="70" as="geometry" />
        </mxCell>
        <mxCell id="DiivEsyJtq7pHUNZ7dKd-29" style="rounded=0;orthogonalLoop=1;jettySize=auto;html=1;exitX=1;exitY=0.3333333333333333;exitDx=0;exitDy=0;exitPerimeter=0;entryX=0;entryY=0.5;entryDx=0;entryDy=0;endArrow=none;endFill=0;" edge="1" parent="1" source="DiivEsyJtq7pHUNZ7dKd-19" target="DiivEsyJtq7pHUNZ7dKd-22">
          <mxGeometry relative="1" as="geometry" />
        </mxCell>
        <mxCell id="DiivEsyJtq7pHUNZ7dKd-34" style="rounded=0;orthogonalLoop=1;jettySize=auto;html=1;exitX=0;exitY=1;exitDx=0;exitDy=0;exitPerimeter=0;entryX=1;entryY=0.5;entryDx=0;entryDy=0;endArrow=none;endFill=0;" edge="1" parent="1" source="DiivEsyJtq7pHUNZ7dKd-33" target="5eVwMM55AhsTZu3MU9i9-105">
          <mxGeometry relative="1" as="geometry" />
        </mxCell>
        <mxCell id="DiivEsyJtq7pHUNZ7dKd-35" style="rounded=0;orthogonalLoop=1;jettySize=auto;html=1;exitX=0;exitY=0.3333333333333333;exitDx=0;exitDy=0;exitPerimeter=0;entryX=1;entryY=0.5;entryDx=0;entryDy=0;endArrow=none;endFill=0;" edge="1" parent="1" source="DiivEsyJtq7pHUNZ7dKd-33" target="5eVwMM55AhsTZu3MU9i9-85">
          <mxGeometry relative="1" as="geometry" />
        </mxCell>
        <mxCell id="DiivEsyJtq7pHUNZ7dKd-33" value="Invitado&lt;br&gt;" style="shape=umlActor;verticalLabelPosition=bottom;verticalAlign=top;html=1;" vertex="1" parent="1">
          <mxGeometry x="2343" y="506" width="30" height="60" as="geometry" />
        </mxCell>
        <mxCell id="DiivEsyJtq7pHUNZ7dKd-42" value="Reportes" style="ellipse;whiteSpace=wrap;html=1;" vertex="1" parent="1">
          <mxGeometry x="2740" y="387" width="140" height="40" as="geometry" />
        </mxCell>
        <mxCell id="DiivEsyJtq7pHUNZ7dKd-46" value="Curriculum" style="ellipse;whiteSpace=wrap;html=1;" vertex="1" parent="1">
          <mxGeometry x="2740" y="582.5" width="140" height="40" as="geometry" />
        </mxCell>
        <mxCell id="DiivEsyJtq7pHUNZ7dKd-47" value="Categoría" style="ellipse;whiteSpace=wrap;html=1;" vertex="1" parent="1">
          <mxGeometry x="2740" y="631.5" width="140" height="42" as="geometry" />
        </mxCell>
        <mxCell id="DiivEsyJtq7pHUNZ7dKd-48" value="Completar Información" style="ellipse;whiteSpace=wrap;html=1;" vertex="1" parent="1">
          <mxGeometry x="2970" y="617.5" width="140" height="48.5" as="geometry" />
        </mxCell>
        <mxCell id="DiivEsyJtq7pHUNZ7dKd-49" value="Tarjeta de credito" style="ellipse;whiteSpace=wrap;html=1;" vertex="1" parent="1">
          <mxGeometry x="2740" y="682" width="140" height="44" as="geometry" />
        </mxCell>
        <mxCell id="DiivEsyJtq7pHUNZ7dKd-50" value="Include" style="endArrow=open;endSize=12;dashed=1;html=1;rounded=0;entryX=0;entryY=0.5;entryDx=0;entryDy=0;exitX=1;exitY=0.5;exitDx=0;exitDy=0;" edge="1" parent="1" source="DiivEsyJtq7pHUNZ7dKd-49" target="DiivEsyJtq7pHUNZ7dKd-48">
          <mxGeometry width="160" relative="1" as="geometry">
            <mxPoint x="2890" y="707.75" as="sourcePoint" />
            <mxPoint x="2969.999999999999" y="682.75" as="targetPoint" />
          </mxGeometry>
        </mxCell>
        <mxCell id="DiivEsyJtq7pHUNZ7dKd-51" value="Búsqueda de Empleo" style="ellipse;whiteSpace=wrap;html=1;" vertex="1" parent="1">
          <mxGeometry x="2740" y="740" width="140" height="40" as="geometry" />
        </mxCell>
        <mxCell id="DiivEsyJtq7pHUNZ7dKd-89" style="rounded=0;orthogonalLoop=1;jettySize=auto;html=1;exitX=1;exitY=0.5;exitDx=0;exitDy=0;entryX=0;entryY=0.5;entryDx=0;entryDy=0;" edge="1" parent="1" source="DiivEsyJtq7pHUNZ7dKd-53" target="DiivEsyJtq7pHUNZ7dKd-56">
          <mxGeometry relative="1" as="geometry" />
        </mxCell>
        <mxCell id="DiivEsyJtq7pHUNZ7dKd-53" value="Razon de empleo" style="ellipse;whiteSpace=wrap;html=1;" vertex="1" parent="1">
          <mxGeometry x="2740" y="884" width="140" height="36" as="geometry" />
        </mxCell>
        <mxCell id="DiivEsyJtq7pHUNZ7dKd-54" value="Perfil Empresa" style="ellipse;whiteSpace=wrap;html=1;" vertex="1" parent="1">
          <mxGeometry x="2740" y="790" width="140" height="40" as="geometry" />
        </mxCell>
        <mxCell id="DiivEsyJtq7pHUNZ7dKd-55" value="Include" style="endArrow=open;endSize=12;dashed=1;html=1;rounded=0;entryX=0;entryY=0.5;entryDx=0;entryDy=0;exitX=1;exitY=0.5;exitDx=0;exitDy=0;" edge="1" parent="1" source="DiivEsyJtq7pHUNZ7dKd-54" target="5eVwMM55AhsTZu3MU9i9-183">
          <mxGeometry width="160" relative="1" as="geometry">
            <mxPoint x="2890" y="852" as="sourcePoint" />
            <mxPoint x="3000" y="822" as="targetPoint" />
          </mxGeometry>
        </mxCell>
        <mxCell id="DiivEsyJtq7pHUNZ7dKd-56" value="Aplicar Empleo" style="ellipse;whiteSpace=wrap;html=1;" vertex="1" parent="1">
          <mxGeometry x="2970" y="877" width="140" height="36" as="geometry" />
        </mxCell>
        <mxCell id="DiivEsyJtq7pHUNZ7dKd-58" value="Include" style="endArrow=open;endSize=12;dashed=1;html=1;rounded=0;entryX=0.5;entryY=1;entryDx=0;entryDy=0;exitX=0.5;exitY=0;exitDx=0;exitDy=0;" edge="1" parent="1" source="DiivEsyJtq7pHUNZ7dKd-56" target="5eVwMM55AhsTZu3MU9i9-183">
          <mxGeometry width="160" relative="1" as="geometry">
            <mxPoint x="2890" y="860" as="sourcePoint" />
            <mxPoint x="3015" y="830" as="targetPoint" />
          </mxGeometry>
        </mxCell>
        <mxCell id="DiivEsyJtq7pHUNZ7dKd-59" value="Postulaciones" style="ellipse;whiteSpace=wrap;html=1;" vertex="1" parent="1">
          <mxGeometry x="2740" y="936" width="140" height="36" as="geometry" />
        </mxCell>
        <mxCell id="wugK7WXSN-6xL4nprbzl-11" style="edgeStyle=orthogonalEdgeStyle;rounded=0;orthogonalLoop=1;jettySize=auto;html=1;exitX=1;exitY=0.5;exitDx=0;exitDy=0;entryX=0;entryY=0.5;entryDx=0;entryDy=0;" edge="1" parent="1" source="DiivEsyJtq7pHUNZ7dKd-60" target="wugK7WXSN-6xL4nprbzl-10">
          <mxGeometry relative="1" as="geometry" />
        </mxCell>
        <mxCell id="DiivEsyJtq7pHUNZ7dKd-60" value="Entrevistas" style="ellipse;whiteSpace=wrap;html=1;" vertex="1" parent="1">
          <mxGeometry x="2960" y="976" width="140" height="36" as="geometry" />
        </mxCell>
        <mxCell id="DiivEsyJtq7pHUNZ7dKd-61" value="Reportes" style="ellipse;whiteSpace=wrap;html=1;" vertex="1" parent="1">
          <mxGeometry x="2740" y="1022" width="140" height="36" as="geometry" />
        </mxCell>
        <mxCell id="DiivEsyJtq7pHUNZ7dKd-65" value="Oferta completa" style="ellipse;whiteSpace=wrap;html=1;" vertex="1" parent="1">
          <mxGeometry x="2740" y="837" width="140" height="40" as="geometry" />
        </mxCell>
        <mxCell id="DiivEsyJtq7pHUNZ7dKd-67" value="Include" style="endArrow=open;endSize=12;dashed=1;html=1;rounded=0;entryX=0;entryY=0.5;entryDx=0;entryDy=0;exitX=1;exitY=0.5;exitDx=0;exitDy=0;" edge="1" parent="1" source="DiivEsyJtq7pHUNZ7dKd-65">
          <mxGeometry width="160" relative="1" as="geometry">
            <mxPoint x="2890" y="820" as="sourcePoint" />
            <mxPoint x="3015" y="805" as="targetPoint" />
          </mxGeometry>
        </mxCell>
        <mxCell id="DiivEsyJtq7pHUNZ7dKd-90" style="rounded=0;orthogonalLoop=1;jettySize=auto;html=1;exitX=1;exitY=0.5;exitDx=0;exitDy=0;entryX=0;entryY=0.5;entryDx=0;entryDy=0;" edge="1" parent="1" source="DiivEsyJtq7pHUNZ7dKd-70" target="DiivEsyJtq7pHUNZ7dKd-60">
          <mxGeometry relative="1" as="geometry" />
        </mxCell>
        <mxCell id="DiivEsyJtq7pHUNZ7dKd-70" value="Oferta completa" style="ellipse;whiteSpace=wrap;html=1;" vertex="1" parent="1">
          <mxGeometry x="2740" y="976" width="140" height="40" as="geometry" />
        </mxCell>
        <mxCell id="DiivEsyJtq7pHUNZ7dKd-72" value="Visión" style="ellipse;whiteSpace=wrap;html=1;" vertex="1" parent="1">
          <mxGeometry x="3479" y="156" width="140" height="46.5" as="geometry" />
        </mxCell>
        <mxCell id="DiivEsyJtq7pHUNZ7dKd-73" value="Mision" style="ellipse;whiteSpace=wrap;html=1;" vertex="1" parent="1">
          <mxGeometry x="3479" y="211.25" width="140" height="46.5" as="geometry" />
        </mxCell>
        <mxCell id="DiivEsyJtq7pHUNZ7dKd-74" value="Metodo de pago" style="ellipse;whiteSpace=wrap;html=1;" vertex="1" parent="1">
          <mxGeometry x="3479" y="266.5" width="140" height="46.5" as="geometry" />
        </mxCell>
        <mxCell id="DiivEsyJtq7pHUNZ7dKd-79" value="Include" style="endArrow=open;endSize=12;dashed=1;html=1;rounded=0;exitX=-0.005;exitY=0.612;exitDx=0;exitDy=0;entryX=1;entryY=0.5;entryDx=0;entryDy=0;exitPerimeter=0;" edge="1" parent="1" source="DiivEsyJtq7pHUNZ7dKd-72" target="5eVwMM55AhsTZu3MU9i9-136">
          <mxGeometry width="160" relative="1" as="geometry">
            <mxPoint x="3630" y="219" as="sourcePoint" />
            <mxPoint x="3540" y="252" as="targetPoint" />
          </mxGeometry>
        </mxCell>
        <mxCell id="DiivEsyJtq7pHUNZ7dKd-80" value="Include" style="endArrow=open;endSize=12;dashed=1;html=1;rounded=0;exitX=0;exitY=0.5;exitDx=0;exitDy=0;entryX=1;entryY=0.5;entryDx=0;entryDy=0;" edge="1" parent="1" source="DiivEsyJtq7pHUNZ7dKd-73" target="5eVwMM55AhsTZu3MU9i9-136">
          <mxGeometry width="160" relative="1" as="geometry">
            <mxPoint x="3659" y="158" as="sourcePoint" />
            <mxPoint x="3570" y="200" as="targetPoint" />
          </mxGeometry>
        </mxCell>
        <mxCell id="DiivEsyJtq7pHUNZ7dKd-81" value="Include" style="endArrow=open;endSize=12;dashed=1;html=1;rounded=0;exitX=0;exitY=0.5;exitDx=0;exitDy=0;entryX=1;entryY=0.5;entryDx=0;entryDy=0;" edge="1" parent="1" source="DiivEsyJtq7pHUNZ7dKd-74" target="5eVwMM55AhsTZu3MU9i9-136">
          <mxGeometry width="160" relative="1" as="geometry">
            <mxPoint x="3669" y="168" as="sourcePoint" />
            <mxPoint x="3580" y="210" as="targetPoint" />
          </mxGeometry>
        </mxCell>
        <mxCell id="DiivEsyJtq7pHUNZ7dKd-82" value="Eliminar Oferta" style="ellipse;whiteSpace=wrap;html=1;" vertex="1" parent="1">
          <mxGeometry x="3469" y="380" width="140" height="40" as="geometry" />
        </mxCell>
        <mxCell id="DiivEsyJtq7pHUNZ7dKd-84" value="Include" style="endArrow=open;endSize=12;dashed=1;html=1;rounded=0;exitX=0;exitY=0.5;exitDx=0;exitDy=0;entryX=1;entryY=0.5;entryDx=0;entryDy=0;" edge="1" parent="1" source="DiivEsyJtq7pHUNZ7dKd-82" target="5eVwMM55AhsTZu3MU9i9-180">
          <mxGeometry width="160" relative="1" as="geometry">
            <mxPoint x="3650" y="326" as="sourcePoint" />
            <mxPoint x="3560" y="374" as="targetPoint" />
          </mxGeometry>
        </mxCell>
        <mxCell id="DiivEsyJtq7pHUNZ7dKd-85" value="Candidatos Oferta" style="ellipse;whiteSpace=wrap;html=1;" vertex="1" parent="1">
          <mxGeometry x="3470" y="485.5" width="140" height="40" as="geometry" />
        </mxCell>
        <mxCell id="DiivEsyJtq7pHUNZ7dKd-86" value="Candidato" style="ellipse;whiteSpace=wrap;html=1;" vertex="1" parent="1">
          <mxGeometry x="3470" y="537.5" width="140" height="40" as="geometry" />
        </mxCell>
        <mxCell id="DiivEsyJtq7pHUNZ7dKd-87" value="Generar entrevista" style="ellipse;whiteSpace=wrap;html=1;" vertex="1" parent="1">
          <mxGeometry x="3470" y="591.5" width="140" height="40" as="geometry" />
        </mxCell>
        <mxCell id="DiivEsyJtq7pHUNZ7dKd-88" value="Revision de postulacioners" style="ellipse;whiteSpace=wrap;html=1;" vertex="1" parent="1">
          <mxGeometry x="3239" y="536" width="140" height="40" as="geometry" />
        </mxCell>
        <mxCell id="DiivEsyJtq7pHUNZ7dKd-91" value="Include" style="endArrow=open;endSize=12;dashed=1;html=1;rounded=0;exitX=0;exitY=0.5;exitDx=0;exitDy=0;entryX=1;entryY=0.5;entryDx=0;entryDy=0;fontStyle=1" edge="1" parent="1" source="DiivEsyJtq7pHUNZ7dKd-85" target="DiivEsyJtq7pHUNZ7dKd-88">
          <mxGeometry width="160" relative="1" as="geometry">
            <mxPoint x="3479" y="455" as="sourcePoint" />
            <mxPoint x="3389" y="410" as="targetPoint" />
          </mxGeometry>
        </mxCell>
        <mxCell id="DiivEsyJtq7pHUNZ7dKd-92" value="Include" style="endArrow=open;endSize=12;dashed=1;html=1;rounded=0;exitX=0;exitY=0.5;exitDx=0;exitDy=0;fontStyle=1;entryX=1;entryY=0.5;entryDx=0;entryDy=0;" edge="1" parent="1" source="DiivEsyJtq7pHUNZ7dKd-86" target="DiivEsyJtq7pHUNZ7dKd-88">
          <mxGeometry width="160" relative="1" as="geometry">
            <mxPoint x="3480" y="516" as="sourcePoint" />
            <mxPoint x="3370" y="536" as="targetPoint" />
          </mxGeometry>
        </mxCell>
        <mxCell id="DiivEsyJtq7pHUNZ7dKd-93" value="Include" style="endArrow=open;endSize=12;dashed=1;html=1;rounded=0;exitX=0;exitY=0.5;exitDx=0;exitDy=0;fontStyle=1;entryX=1;entryY=0.5;entryDx=0;entryDy=0;" edge="1" parent="1" source="DiivEsyJtq7pHUNZ7dKd-87" target="DiivEsyJtq7pHUNZ7dKd-88">
          <mxGeometry width="160" relative="1" as="geometry">
            <mxPoint x="3480" y="568" as="sourcePoint" />
            <mxPoint x="3380" y="541" as="targetPoint" />
          </mxGeometry>
        </mxCell>
        <mxCell id="DiivEsyJtq7pHUNZ7dKd-98" value="Revision de postulacioners" style="ellipse;whiteSpace=wrap;html=1;" vertex="1" parent="1">
          <mxGeometry x="3239" y="674" width="140" height="40" as="geometry" />
        </mxCell>
        <mxCell id="DiivEsyJtq7pHUNZ7dKd-104" style="edgeStyle=orthogonalEdgeStyle;rounded=0;orthogonalLoop=1;jettySize=auto;html=1;exitX=0;exitY=0.5;exitDx=0;exitDy=0;entryX=1;entryY=0.5;entryDx=0;entryDy=0;" edge="1" parent="1" source="DiivEsyJtq7pHUNZ7dKd-99" target="DiivEsyJtq7pHUNZ7dKd-98">
          <mxGeometry relative="1" as="geometry" />
        </mxCell>
        <mxCell id="DiivEsyJtq7pHUNZ7dKd-99" value="Finalizar&amp;nbsp; Entrevistaas" style="ellipse;whiteSpace=wrap;html=1;" vertex="1" parent="1">
          <mxGeometry x="3469" y="673.5" width="140" height="40" as="geometry" />
        </mxCell>
        <mxCell id="DiivEsyJtq7pHUNZ7dKd-100" value="Reportes" style="ellipse;whiteSpace=wrap;html=1;" vertex="1" parent="1">
          <mxGeometry x="3470" y="740" width="140" height="40" as="geometry" />
        </mxCell>
        <mxCell id="lPMzp1araiUFEV0C0I6o-5" style="rounded=0;orthogonalLoop=1;jettySize=auto;html=1;exitX=0;exitY=0.3333333333333333;exitDx=0;exitDy=0;exitPerimeter=0;entryX=1;entryY=0;entryDx=0;entryDy=0;endArrow=none;endFill=0;" edge="1" parent="1" source="5eVwMM55AhsTZu3MU9i9-128" target="lPMzp1araiUFEV0C0I6o-4">
          <mxGeometry relative="1" as="geometry" />
        </mxCell>
        <mxCell id="wugK7WXSN-6xL4nprbzl-17" style="rounded=0;orthogonalLoop=1;jettySize=auto;html=1;exitX=1;exitY=0.3333333333333333;exitDx=0;exitDy=0;exitPerimeter=0;entryX=0.5;entryY=0;entryDx=0;entryDy=0;endArrow=none;endFill=0;" edge="1" parent="1" source="5eVwMM55AhsTZu3MU9i9-128" target="wugK7WXSN-6xL4nprbzl-16">
          <mxGeometry relative="1" as="geometry" />
        </mxCell>
        <mxCell id="5eVwMM55AhsTZu3MU9i9-128" value="Usuario" style="shape=umlActor;verticalLabelPosition=bottom;verticalAlign=top;html=1;" vertex="1" parent="1">
          <mxGeometry x="3145" y="30" width="30" height="60" as="geometry" />
        </mxCell>
        <mxCell id="DiivEsyJtq7pHUNZ7dKd-106" value="Oferta completa" style="ellipse;whiteSpace=wrap;html=1;" vertex="1" parent="1">
          <mxGeometry x="3430" y="982" width="140" height="40" as="geometry" />
        </mxCell>
        <mxCell id="DiivEsyJtq7pHUNZ7dKd-109" value="&lt;font style=&quot;font-size: 18px;&quot;&gt;Solicitante&lt;/font&gt;" style="text;html=1;strokeColor=none;fillColor=none;align=center;verticalAlign=middle;whiteSpace=wrap;rounded=0;" vertex="1" parent="1">
          <mxGeometry x="1195" y="20" width="150" height="30" as="geometry" />
        </mxCell>
        <mxCell id="DiivEsyJtq7pHUNZ7dKd-110" value="&lt;font style=&quot;font-size: 18px;&quot;&gt;Empleador&lt;/font&gt;" style="text;html=1;strokeColor=none;fillColor=none;align=center;verticalAlign=middle;whiteSpace=wrap;rounded=0;" vertex="1" parent="1">
          <mxGeometry x="1200" y="641" width="150" height="30" as="geometry" />
        </mxCell>
        <mxCell id="lPMzp1araiUFEV0C0I6o-1" value="Olvidar contraseña" style="ellipse;whiteSpace=wrap;html=1;" vertex="1" parent="1">
          <mxGeometry x="349" y="372" width="140" height="70" as="geometry" />
        </mxCell>
        <mxCell id="lPMzp1araiUFEV0C0I6o-4" value="Olvidar Contraseña" style="ellipse;whiteSpace=wrap;html=1;" vertex="1" parent="1">
          <mxGeometry x="2880" y="124" width="140" height="49" as="geometry" />
        </mxCell>
        <mxCell id="wugK7WXSN-6xL4nprbzl-1" value="Notificaciones" style="ellipse;whiteSpace=wrap;html=1;" vertex="1" parent="1">
          <mxGeometry x="350" y="536" width="140" height="70" as="geometry" />
        </mxCell>
        <mxCell id="wugK7WXSN-6xL4nprbzl-4" value="Perfil" style="ellipse;whiteSpace=wrap;html=1;" vertex="1" parent="1">
          <mxGeometry x="350" y="616" width="140" height="70" as="geometry" />
        </mxCell>
        <mxCell id="wugK7WXSN-6xL4nprbzl-8" value="Contratacion" style="ellipse;whiteSpace=wrap;html=1;" vertex="1" parent="1">
          <mxGeometry x="1205" y="1080" width="140" height="50" as="geometry" />
        </mxCell>
        <mxCell id="wugK7WXSN-6xL4nprbzl-10" value="Contratacion" style="ellipse;whiteSpace=wrap;html=1;" vertex="1" parent="1">
          <mxGeometry x="3145" y="976" width="140" height="36" as="geometry" />
        </mxCell>
        <mxCell id="wugK7WXSN-6xL4nprbzl-12" value="Notificaciones" style="ellipse;whiteSpace=wrap;html=1;" vertex="1" parent="1">
          <mxGeometry x="2740" y="521.5" width="140" height="49" as="geometry" />
        </mxCell>
        <mxCell id="wugK7WXSN-6xL4nprbzl-13" value="Notificaciones" style="ellipse;whiteSpace=wrap;html=1;" vertex="1" parent="1">
          <mxGeometry x="3479" y="792" width="140" height="49" as="geometry" />
        </mxCell>
        <mxCell id="wugK7WXSN-6xL4nprbzl-16" value="Perfil" style="ellipse;whiteSpace=wrap;html=1;" vertex="1" parent="1">
          <mxGeometry x="3329" y="124" width="140" height="49" as="geometry" />
        </mxCell>
      </root>
    </mxGraphModel>
  </diagram>
</mxfile>
